<mxfile host="app.diagrams.net" modified="2020-10-26T20:58:56.765Z" agent="5.0 (X11)" etag="pgdUgFTej_8xAOLy_kZo" version="13.8.3" type="github">
  <diagram id="C5RBs43oDa-KdzZeNtuy" name="Page-1">
    <mxGraphModel dx="1021" dy="546" grid="1" gridSize="10" guides="1" tooltips="1" connect="1" arrows="1" fold="1" page="1" pageScale="1" pageWidth="827" pageHeight="1169" math="0" shadow="0">
      <root>
        <mxCell id="WIyWlLk6GJQsqaUBKTNV-0" />
        <mxCell id="WIyWlLk6GJQsqaUBKTNV-1" parent="WIyWlLk6GJQsqaUBKTNV-0" />
        <mxCell id="BzCzOP6wDVODxwOKykzf-4" style="edgeStyle=orthogonalEdgeStyle;rounded=0;orthogonalLoop=1;jettySize=auto;html=1;entryX=0;entryY=0.5;entryDx=0;entryDy=0;endArrow=none;endFill=0;" edge="1" parent="WIyWlLk6GJQsqaUBKTNV-1" source="BzCzOP6wDVODxwOKykzf-0" target="BzCzOP6wDVODxwOKykzf-1">
          <mxGeometry relative="1" as="geometry" />
        </mxCell>
        <mxCell id="BzCzOP6wDVODxwOKykzf-0" value="" style="rounded=0;whiteSpace=wrap;html=1;" vertex="1" parent="WIyWlLk6GJQsqaUBKTNV-1">
          <mxGeometry x="90" y="80" width="120" height="60" as="geometry" />
        </mxCell>
        <mxCell id="BzCzOP6wDVODxwOKykzf-3" value="" style="edgeStyle=orthogonalEdgeStyle;rounded=0;orthogonalLoop=1;jettySize=auto;html=1;endArrow=none;endFill=0;" edge="1" parent="WIyWlLk6GJQsqaUBKTNV-1" source="BzCzOP6wDVODxwOKykzf-1" target="BzCzOP6wDVODxwOKykzf-2">
          <mxGeometry relative="1" as="geometry" />
        </mxCell>
        <mxCell id="BzCzOP6wDVODxwOKykzf-1" value="" style="rhombus;whiteSpace=wrap;html=1;" vertex="1" parent="WIyWlLk6GJQsqaUBKTNV-1">
          <mxGeometry x="270" y="70" width="80" height="80" as="geometry" />
        </mxCell>
        <mxCell id="BzCzOP6wDVODxwOKykzf-6" value="" style="rounded=0;orthogonalLoop=1;jettySize=auto;html=1;entryX=0.5;entryY=0;entryDx=0;entryDy=0;edgeStyle=orthogonalEdgeStyle;endArrow=none;endFill=0;" edge="1" parent="WIyWlLk6GJQsqaUBKTNV-1" source="BzCzOP6wDVODxwOKykzf-2" target="BzCzOP6wDVODxwOKykzf-5">
          <mxGeometry relative="1" as="geometry" />
        </mxCell>
        <mxCell id="BzCzOP6wDVODxwOKykzf-2" value="estas aqui?&lt;br&gt;" style="whiteSpace=wrap;html=1;" vertex="1" parent="WIyWlLk6GJQsqaUBKTNV-1">
          <mxGeometry x="410" y="80" width="120" height="60" as="geometry" />
        </mxCell>
        <mxCell id="BzCzOP6wDVODxwOKykzf-8" value="" style="edgeStyle=orthogonalEdgeStyle;rounded=0;orthogonalLoop=1;jettySize=auto;html=1;endArrow=none;endFill=0;" edge="1" parent="WIyWlLk6GJQsqaUBKTNV-1" source="BzCzOP6wDVODxwOKykzf-5" target="BzCzOP6wDVODxwOKykzf-7">
          <mxGeometry relative="1" as="geometry" />
        </mxCell>
        <mxCell id="BzCzOP6wDVODxwOKykzf-5" value="" style="rhombus;whiteSpace=wrap;html=1;" vertex="1" parent="WIyWlLk6GJQsqaUBKTNV-1">
          <mxGeometry x="350" y="220" width="80" height="80" as="geometry" />
        </mxCell>
        <mxCell id="BzCzOP6wDVODxwOKykzf-7" value="" style="whiteSpace=wrap;html=1;" vertex="1" parent="WIyWlLk6GJQsqaUBKTNV-1">
          <mxGeometry x="430" y="380" width="120" height="60" as="geometry" />
        </mxCell>
        <mxCell id="BzCzOP6wDVODxwOKykzf-11" style="edgeStyle=orthogonalEdgeStyle;rounded=0;orthogonalLoop=1;jettySize=auto;html=1;entryX=0.667;entryY=-0.017;entryDx=0;entryDy=0;entryPerimeter=0;endArrow=none;endFill=0;exitX=0.5;exitY=1;exitDx=0;exitDy=0;" edge="1" parent="WIyWlLk6GJQsqaUBKTNV-1" source="BzCzOP6wDVODxwOKykzf-9" target="BzCzOP6wDVODxwOKykzf-7">
          <mxGeometry relative="1" as="geometry" />
        </mxCell>
        <mxCell id="BzCzOP6wDVODxwOKykzf-13" value="" style="edgeStyle=orthogonalEdgeStyle;rounded=0;orthogonalLoop=1;jettySize=auto;html=1;endArrow=none;endFill=0;exitX=0.5;exitY=0;exitDx=0;exitDy=0;" edge="1" parent="WIyWlLk6GJQsqaUBKTNV-1" source="BzCzOP6wDVODxwOKykzf-9" target="BzCzOP6wDVODxwOKykzf-2">
          <mxGeometry relative="1" as="geometry">
            <Array as="points">
              <mxPoint x="570" y="180" />
              <mxPoint x="490" y="180" />
            </Array>
          </mxGeometry>
        </mxCell>
        <mxCell id="BzCzOP6wDVODxwOKykzf-9" value="" style="rhombus;whiteSpace=wrap;html=1;" vertex="1" parent="WIyWlLk6GJQsqaUBKTNV-1">
          <mxGeometry x="530" y="220" width="80" height="80" as="geometry" />
        </mxCell>
      </root>
    </mxGraphModel>
  </diagram>
</mxfile>
